<svg xmlns="http://www.w3.org/2000/svg" width="108" height="108" viewBox="0 0 108 108"><rect x="27.6" y="48.4" width="3.5" height="11.3" fill="#2563eb" rx="0.9"/><rect x="32.0" y="44.4" width="3.5" height="19.2" fill="#2563eb" rx="0.9"/><rect x="36.4" y="44.5" width="3.5" height="19.0" fill="#2563eb" rx="0.9"/><rect x="40.8" y="40.0" width="3.5" height="28.0" fill="#2563eb" rx="0.9"/><rect x="45.2" y="31.6" width="3.5" height="44.7" fill="#2563eb" rx="0.9"/><rect x="49.6" y="35.2" width="3.5" height="37.6" fill="#2563eb" rx="0.9"/><rect x="54.0" y="38.4" width="3.5" height="31.1" fill="#2563eb" rx="0.9"/><rect x="58.4" y="33.0" width="3.5" height="42.1" fill="#2563eb" rx="0.9"/><rect x="62.8" y="37.6" width="3.5" height="32.8" fill="#2563eb" rx="0.9"/><rect x="67.2" y="36.6" width="3.5" height="34.8" fill="#2563eb" rx="0.9"/><rect x="71.6" y="45.4" width="3.5" height="17.1" fill="#2563eb" rx="0.9"/><rect x="76.0" y="42.4" width="3.5" height="23.1" fill="#2563eb" rx="0.9"/></svg>