<svg xmlns="http://www.w3.org/2000/svg" width="512" height="512" viewBox="0 0 512 512"><rect width="100%" height="100%" fill="#1a1a1a"/><rect x="133.1" y="242.7" width="16.4" height="26.5" fill="#2563eb" rx="4.1"/><rect x="153.6" y="215.2" width="16.4" height="81.7" fill="#2563eb" rx="4.1"/><rect x="174.1" y="175.8" width="16.4" height="160.4" fill="#2563eb" rx="4.1"/><rect x="194.6" y="183.6" width="16.4" height="144.7" fill="#2563eb" rx="4.1"/><rect x="215.0" y="154.2" width="16.4" height="203.7" fill="#2563eb" rx="4.1"/><rect x="235.5" y="180.3" width="16.4" height="151.5" fill="#2563eb" rx="4.1"/><rect x="256.0" y="178.2" width="16.4" height="155.6" fill="#2563eb" rx="4.1"/><rect x="276.5" y="191.3" width="16.4" height="129.4" fill="#2563eb" rx="4.1"/><rect x="297.0" y="176.4" width="16.4" height="159.1" fill="#2563eb" rx="4.1"/><rect x="317.4" y="201.2" width="16.4" height="109.6" fill="#2563eb" rx="4.1"/><rect x="337.9" y="187.1" width="16.4" height="137.7" fill="#2563eb" rx="4.1"/><rect x="358.4" y="211.9" width="16.4" height="88.3" fill="#2563eb" rx="4.1"/></svg>