<svg xmlns="http://www.w3.org/2000/svg" width="48" height="48" viewBox="0 0 48 48"><rect x="4.8" y="16.1" width="2.6" height="15.8" fill="#2563eb" rx="0.6"/><rect x="8.0" y="15.6" width="2.6" height="16.9" fill="#2563eb" rx="0.6"/><rect x="11.2" y="12.6" width="2.6" height="22.7" fill="#2563eb" rx="0.6"/><rect x="14.4" y="10.3" width="2.6" height="27.5" fill="#2563eb" rx="0.6"/><rect x="17.6" y="14.3" width="2.6" height="19.4" fill="#2563eb" rx="0.6"/><rect x="20.8" y="13.7" width="2.6" height="20.6" fill="#2563eb" rx="0.6"/><rect x="24.0" y="9.3" width="2.6" height="29.4" fill="#2563eb" rx="0.6"/><rect x="27.2" y="8.0" width="2.6" height="32.1" fill="#2563eb" rx="0.6"/><rect x="30.4" y="11.4" width="2.6" height="25.3" fill="#2563eb" rx="0.6"/><rect x="33.6" y="13.4" width="2.6" height="21.3" fill="#2563eb" rx="0.6"/><rect x="36.8" y="13.8" width="2.6" height="20.4" fill="#2563eb" rx="0.6"/><rect x="40.0" y="21.1" width="2.6" height="5.7" fill="#2563eb" rx="0.6"/></svg>