<svg xmlns="http://www.w3.org/2000/svg" width="512" height="512" viewBox="0 0 512 512"><rect width="100%" height="100%" fill="#1a1a1a"/><rect x="51.2" y="225.0" width="27.3" height="62.0" fill="#2563eb" rx="6.8"/><rect x="85.3" y="151.9" width="27.3" height="208.1" fill="#2563eb" rx="6.8"/><rect x="119.5" y="172.1" width="27.3" height="167.9" fill="#2563eb" rx="6.8"/><rect x="153.6" y="133.8" width="27.3" height="244.5" fill="#2563eb" rx="6.8"/><rect x="187.7" y="95.6" width="27.3" height="320.8" fill="#2563eb" rx="6.8"/><rect x="221.9" y="133.3" width="27.3" height="245.3" fill="#2563eb" rx="6.8"/><rect x="256.0" y="132.9" width="27.3" height="246.3" fill="#2563eb" rx="6.8"/><rect x="290.1" y="132.8" width="27.3" height="246.4" fill="#2563eb" rx="6.8"/><rect x="324.3" y="157.9" width="27.3" height="196.3" fill="#2563eb" rx="6.8"/><rect x="358.4" y="118.0" width="27.3" height="276.0" fill="#2563eb" rx="6.8"/><rect x="392.5" y="154.7" width="27.3" height="202.6" fill="#2563eb" rx="6.8"/><rect x="426.7" y="235.2" width="27.3" height="41.6" fill="#2563eb" rx="6.8"/></svg>