<svg xmlns="http://www.w3.org/2000/svg" width="48" height="48" viewBox="0 0 48 48"><rect x="4.8" y="17.3" width="2.6" height="13.5" fill="#2563eb" rx="0.6"/><rect x="8.0" y="14.6" width="2.6" height="18.9" fill="#2563eb" rx="0.6"/><rect x="11.2" y="15.5" width="2.6" height="16.9" fill="#2563eb" rx="0.6"/><rect x="14.4" y="10.8" width="2.6" height="26.4" fill="#2563eb" rx="0.6"/><rect x="17.6" y="9.6" width="2.6" height="28.8" fill="#2563eb" rx="0.6"/><rect x="20.8" y="9.8" width="2.6" height="28.4" fill="#2563eb" rx="0.6"/><rect x="24.0" y="10.4" width="2.6" height="27.2" fill="#2563eb" rx="0.6"/><rect x="27.2" y="9.6" width="2.6" height="28.8" fill="#2563eb" rx="0.6"/><rect x="30.4" y="13.1" width="2.6" height="21.8" fill="#2563eb" rx="0.6"/><rect x="33.6" y="12.2" width="2.6" height="23.6" fill="#2563eb" rx="0.6"/><rect x="36.8" y="12.5" width="2.6" height="22.9" fill="#2563eb" rx="0.6"/><rect x="40.0" y="16.9" width="2.6" height="14.2" fill="#2563eb" rx="0.6"/></svg>