<svg xmlns="http://www.w3.org/2000/svg" width="1024" height="1024" viewBox="0 0 1024 1024"><rect width="100%" height="100%" fill="#1a1a1a"/><rect x="102.4" y="434.2" width="54.6" height="155.6" fill="#2563eb" rx="13.7"/><rect x="170.7" y="424.1" width="54.6" height="175.9" fill="#2563eb" rx="13.7"/><rect x="238.9" y="299.9" width="54.6" height="424.2" fill="#2563eb" rx="13.7"/><rect x="307.2" y="249.9" width="54.6" height="524.3" fill="#2563eb" rx="13.7"/><rect x="375.5" y="244.0" width="54.6" height="536.1" fill="#2563eb" rx="13.7"/><rect x="443.7" y="191.4" width="54.6" height="641.2" fill="#2563eb" rx="13.7"/><rect x="512.0" y="159.9" width="54.6" height="704.2" fill="#2563eb" rx="13.7"/><rect x="580.3" y="215.9" width="54.6" height="592.1" fill="#2563eb" rx="13.7"/><rect x="648.5" y="200.4" width="54.6" height="623.2" fill="#2563eb" rx="13.7"/><rect x="716.8" y="313.4" width="54.6" height="397.1" fill="#2563eb" rx="13.7"/><rect x="785.1" y="278.5" width="54.6" height="467.0" fill="#2563eb" rx="13.7"/><rect x="853.3" y="318.6" width="54.6" height="386.8" fill="#2563eb" rx="13.7"/></svg>