<svg xmlns="http://www.w3.org/2000/svg" width="2732" height="2732" viewBox="0 0 2732 2732"><rect width="100%" height="100%" fill="transparent"/><rect x="1286.0" y="1341.1" width="10.7" height="49.8" fill="#2563eb" rx="2.7"/><rect x="1299.3" y="1338.3" width="10.7" height="55.3" fill="#2563eb" rx="2.7"/><rect x="1312.7" y="1319.8" width="10.7" height="92.4" fill="#2563eb" rx="2.7"/><rect x="1326.0" y="1318.3" width="10.7" height="95.5" fill="#2563eb" rx="2.7"/><rect x="1339.3" y="1304.0" width="10.7" height="124.0" fill="#2563eb" rx="2.7"/><rect x="1352.7" y="1322.6" width="10.7" height="86.8" fill="#2563eb" rx="2.7"/><rect x="1366.0" y="1302.0" width="10.7" height="128.1" fill="#2563eb" rx="2.7"/><rect x="1379.3" y="1301.2" width="10.7" height="129.7" fill="#2563eb" rx="2.7"/><rect x="1392.7" y="1327.9" width="10.7" height="76.1" fill="#2563eb" rx="2.7"/><rect x="1406.0" y="1324.8" width="10.7" height="82.4" fill="#2563eb" rx="2.7"/><rect x="1419.3" y="1320.2" width="10.7" height="91.5" fill="#2563eb" rx="2.7"/><rect x="1432.7" y="1349.0" width="10.7" height="34.1" fill="#2563eb" rx="2.7"/></svg>